{
  "accessors": [
    {
      "bufferView": 2,
      "componentType": 5126,
      "count": 711,
      "max": [
        415.2959289550781,
        2156.45458984375,
        188.82131958007813
      ],
      "min": [
        -401.1518859863281,
        -989.1087036132813,
        -180.02740478515625
      ],
      "type": "VEC3"
    },
    {
      "bufferView": 2,
      "byteOffset": 8532,
      "componentType": 5126,
      "count": 711,
      "max": [
        1.0,
        1.0,
        1.0
      ],
      "min": [
        -1.0,
        -1.0,
        -1.0
      ],
      "type": "VEC3"
    },
    {
      "bufferView": 1,
      "componentType": 5126,
      "count": 711,
      "max": [
        0.9990243911743164,
        0.9996744394302368
      ],
      "min": [
        0.0003255467163398862,
        0.04349923133850098
      ],
      "type": "VEC2"
    },
    {
      "bufferView": 0,
      "componentType": 5125,
      "count": 3252,
      "type": "SCALAR"
    }
  ],
  "asset": {
    "extras": {
      "author": "museudocomputador (https://sketchfab.com/museudocomputador)",
      "license": "CC-BY-4.0 (http://creativecommons.org/licenses/by/4.0/)",
      "source": "https://sketchfab.com/3d-models/first-cellphone-e4c5d2700930484f8f3a06de9f2210ce",
      "title": "First Cellphone"
    },
    "generator": "Sketchfab-13.1.0",
    "version": "2.0"
  },
  "bufferViews": [
    {
      "buffer": 0,
      "byteLength": 13008,
      "name": "floatBufferViews",
      "target": 34963
    },
    {
      "buffer": 0,
      "byteLength": 5688,
      "byteOffset": 13008,
      "byteStride": 8,
      "name": "floatBufferViews",
      "target": 34962
    },
    {
      "buffer": 0,
      "byteLength": 17064,
      "byteOffset": 18696,
      "byteStride": 12,
      "name": "floatBufferViews",
      "target": 34962
    }
  ],
  "buffers": [
    {
      "byteLength": 35760,
      "uri": "scene.bin"
    }
  ],
  "images": [
    {
      "uri": "textures/Capsule_baseColor.png"
    }
  ],
  "materials": [
    {
      "doubleSided": true,
      "name": "Capsule",
      "pbrMetallicRoughness": {
        "baseColorTexture": {
          "index": 0
        },
        "metallicFactor": 0.4739062061903426,
        "roughnessFactor": 0.6
      }
    }
  ],
  "meshes": [
    {
      "name": "Capsule_Capsule_0",
      "primitives": [
        {
          "attributes": {
            "NORMAL": 1,
            "POSITION": 0,
            "TEXCOORD_0": 2
          },
          "indices": 3,
          "material": 0,
          "mode": 4
        }
      ]
    }
  ],
  "nodes": [
    {
      "children": [
        1
      ],
      "matrix": [
        0.010465416125953197,
        0.0,
        0.0,
        0.0,
        0.0,
        2.3237891890633294e-18,
        -0.010465416125953197,
        0.0,
        0.0,
        0.010465416125953197,
        2.3237891890633294e-18,
        0.0,
        0.0,
        0.0,
        0.0,
        1.0
      ],
      "name": "Sketchfab_model"
    },
    {
      "children": [
        2
      ],
      "matrix": [
        0.009999999776482582,
        0.0,
        0.0,
        0.0,
        0.0,
        0.0,
        0.009999999776482582,
        0.0,
        0.0,
        -0.009999999776482582,
        0.0,
        0.0,
        0.0,
        0.0,
        0.0,
        1.0
      ],
      "name": "d81de14e44604cadb5d80d64ed20c648.fbx"
    },
    {
      "children": [
        3,
        5
      ],
      "name": "RootNode"
    },
    {
      "children": [
        4
      ],
      "matrix": [
        0.9173706442185527,
        -0.09956576654804715,
        -0.3853800192767359,
        0.0,
        0.09179484148192453,
        0.995030983503378,
        -0.03856227360528129,
        0.0,
        0.3873045419348266,
        3.469446951953614e-18,
        0.9219518381112184,
        0.0,
        -6038.96142578125,
        1964.68798828125,
        2246.544677734375,
        1.0
      ],
      "name": "CINEMA_4D_Editor"
    },
    {
      "name": "Object_4"
    },
    {
      "children": [
        6
      ],
      "matrix": [
        1.0,
        0.0,
        0.0,
        0.0,
        0.0,
        1.0,
        0.0,
        0.0,
        0.0,
        0.0,
        1.0,
        0.0,
        1.1518949270248413,
        1024.293701171875,
        -23.150188446044922,
        1.0
      ],
      "name": "Capsule"
    },
    {
      "mesh": 0,
      "name": "Capsule_Capsule_0"
    }
  ],
  "samplers": [
    {
      "magFilter": 9729,
      "minFilter": 9987,
      "wrapS": 10497,
      "wrapT": 10497
    }
  ],
  "scene": 0,
  "scenes": [
    {
      "name": "Sketchfab_Scene",
      "nodes": [
        0
      ]
    }
  ],
  "textures": [
    {
      "sampler": 0,
      "source": 0
    }
  ]
}
